<?xml version="1.0" encoding="iso-8859-1"?>
<!-- Generator: Adobe Illustrator 19.0.0, SVG Export Plug-In . SVG Version: 6.00 Build 0)  -->
<svg version="1.1" id="Layer_1" xmlns="http://www.w3.org/2000/svg" xmlns:xlink="http://www.w3.org/1999/xlink" x="0px" y="0px"
	 viewBox="0 0 512 512" style="enable-background:new 0 0 512 512;" xml:space="preserve">
<polygon style="fill:#F9D026;" points="512,239.304 296.307,239.304 381.661,153.948 358.052,130.339 272.696,215.693 272.696,0 
	255.613,0 239.304,0 239.304,215.693 153.948,130.339 130.339,153.948 215.693,239.304 0,239.304 0,272.696 215.693,272.696 
	130.339,358.052 153.948,381.661 239.304,296.307 239.304,512 255.613,512 272.696,512 272.696,296.307 358.052,381.661 
	381.661,358.052 296.307,272.696 512,272.696 "/>
<polygon style="fill:#E7C224;" points="512,239.304 296.307,239.304 381.661,153.948 358.052,130.339 272.696,215.693 272.696,0 
	255.613,0 255.613,512 272.696,512 272.696,296.307 358.052,381.661 381.661,358.052 296.307,272.696 512,272.696 "/>
<g>
</g>
<g>
</g>
<g>
</g>
<g>
</g>
<g>
</g>
<g>
</g>
<g>
</g>
<g>
</g>
<g>
</g>
<g>
</g>
<g>
</g>
<g>
</g>
<g>
</g>
<g>
</g>
<g>
</g>
</svg>
